Patient4_TMGait_0pt4_01_left_09_EMG.mot
version=1
nRows=30
nColumns=33
inDegrees=no
endheader
time	1LAddLong	2LGlutMax	3LGlutMed	4LIliopsoas	5LSemiMemb	6LBicFemLong	7LRecFem	8LVastMed	9LVastLat	10LGasMed	11LTibAnt	12lTibPost	13LPeroneusLong	14LSol	15LExtDigLong	16LFlexDigLong	17RAddLong	18RGlutMax	19RGlutMed	20RIliopsoas	21RSemiMemb	22RBicFemLong	23RRecFem	24RVastMed	25RVastLat	26RGasMed	27RTibAnt	28RTibPost	29RPeroneusLong	30RSol	31RExtDigLong	32RFlexDigLong
11.575	-0.010681	-0.015259	0.12772	0.006256	-0.03067	0.19287	0.059509	-0.00412	-0.00885	-0.18341	0.023956	-0.023346	-0.061798	0.31296	0.028229	-0.002747	0.11749	-0.06424	0.39566	-0.066528	0.112	-0.096741	-0.20065	-0.018463	0.4071	-0.005493	0.16113	0.003967	-0.006409	-0.033264	0.002136	0.002136
11.576	-0.000153	-0.002899	0.093994	0.00885	-0.095673	0.042267	0.057526	0.011902	-0.030365	-0.030975	0.014496	-0.047607	0.033875	0.38254	0.045471	-0.062256	0.083008	-0.092621	0.47714	-0.14328	0.14679	-0.066833	0.028381	-0.048981	0.17502	-0.015564	0.25375	0.000458	-0.060577	-0.080109	0.001373	-0.011749
11.577	0.010529	-0.005341	0.079956	0.009766	-0.043945	-0.28961	0.076599	-0.007172	-0.025787	0.35172	0.00885	-0.039368	0.052948	0.12756	0.032043	-0.076141	0.056458	-0.060272	0.48096	-0.096283	0.041199	-0.012817	0.15472	-0.099335	0.094757	-0.014496	0.35309	0.003204	-0.097809	-0.12924	0.002441	-0.00885
11.578	0.019226	0.020294	0.048065	0.018616	0.060425	-0.6778	0.087128	0.006409	-0.023499	0.22095	0.014648	-0.046844	0.060272	-0.041809	0.006104	-0.03891	0.030212	-0.022278	0.068512	-0.068054	-0.092468	0.042267	0.12421	-0.09491	0.074615	-0.016479	0.29617	0.001221	-0.091858	-0.13641	-0.001068	-0.009613
11.579	0.021515	0.024567	0.066223	0.010986	0.048065	-0.64514	0.069427	0.002899	-0.040131	-0.65781	0.012512	-0.030212	-0.027161	0.19409	0.021362	-0.017395	-0.010223	-0.019989	-0.090637	0.12436	-0.042114	0.033264	0.095367	-0.066833	0.031738	-0.012512	-0.21896	-0.006409	-0.028229	-0.16647	0.007019	-0.006866
11.58	0.023499	0.023499	0.11017	0.016327	0.11597	-0.32181	0.031738	-0.011749	-0.039063	-0.53162	0.018158	-0.024109	-0.035095	0.22232	0.005951	-0.00412	0.007629	-0.057678	-0.17349	0.21545	-0.011292	-0.016479	0.050354	-0.07309	0.022736	-0.006409	-0.21683	0.002747	0.03891	-0.18616	0.00351	-0.00351
11.581	0.0177	0.02655	0.070953	0.013733	0.13077	-0.11871	0.028229	-0.001678	-0.037079	-0.21194	0.020752	0.014038	0.025635	0.18951	0.007935	-0.034637	0.008698	-0.12985	-0.17395	0.16998	0.13046	0.005341	0.046844	-0.1416	0.011749	-0.00473	-0.45441	0.001831	0.084381	-0.22476	0.001984	0.000916
11.582	0.006104	0.046234	0.081024	0.005035	0.079041	0.049744	0.046387	0.000305	-0.037842	-0.14465	0.019379	0.028229	0.10986	0.10803	-0.013733	-0.032043	0.01236	-0.12924	-0.12375	0.10025	0.092468	0.026855	-0.012665	-0.10315	0.002594	-0.001373	-0.40466	0.003815	-0.021515	-0.097198	0.008087	-0.011902
11.583	-0.002441	0.015869	0.055389	0.009918	0.055847	0.25436	0.059967	0.001678	-0.037231	-0.13886	0.028534	-0.002899	0.015106	-0.056763	-0.015564	-0.02533	-0.002747	-0.14236	-0.059509	0.069733	0.07019	0.015411	-0.085144	-0.088806	0.003967	-0.003967	-0.4245	-0.001068	-0.059509	0.016479	0.007477	-0.00946
11.584	0.003204	-0.010986	0.049896	0.018921	0.058136	0.20233	0.03418	-0.007935	-0.000305	-0.11765	0.029602	0.021057	-0.047302	0.080719	-0.00351	-0.017395	-0.019836	-0.18707	0.074921	0.015259	0.11047	-0.012054	-0.10437	0.039978	-0.024261	-0.005188	-0.51071	0.002594	-0.020599	-0.11307	0.007172	-0.007782
11.585	0.001984	0.02182	0.083008	0.012054	0.045776	0.17929	0.013428	0.005035	0.003357	-0.11963	0.014343	0.096283	-0.00412	0.10468	0.014954	-0.011749	-0.052643	-0.14496	0.19852	-0.021667	0.11505	-0.016479	-0.19058	0.06073	0.02533	-0.00412	-0.11856	-0.001984	-0.033569	-0.18463	0.004425	-0.016022
11.586	0.00473	0.010681	0.005646	0.014191	0.003052	0.15305	0.024261	-0.006256	0.00351	-0.047455	0.003662	-0.18509	-0.034943	0.091095	0.027924	-0.017395	-0.046844	-0.18829	0.063629	-0.035858	0.074005	-0.03067	-0.23834	0.11047	0.001831	0.002441	0.49301	0.002136	-0.096436	-0.09613	0.00946	-0.021973
11.587	0.000916	0.037537	0.041046	0.018005	-0.009766	0.093384	0.034332	-0.001068	-0.015106	0.23163	0.009003	-0.050964	0.021362	-0.06546	0.019684	-0.005493	-0.030365	-0.18082	-0.20462	0.005646	0.094147	-0.040436	-0.18982	0.17975	-0.002136	0.003204	0.58884	-0.001068	0.034485	-0.009613	0.005341	-0.020142
11.588	-0.002136	0.022736	0.074463	0.003967	0.004425	-0.033264	0.021362	0.005646	-0.025177	0.041351	0.001831	-0.020294	0.044861	-0.14679	-0.00061	-0.020294	-0.023499	-0.20309	-0.042267	0.016174	0.11459	-0.066986	-0.12894	0.2211	-0.001831	0.005035	0.30304	-0.00473	0.12695	-0.021057	0.002441	-0.010376
11.589	-0.000305	0.021515	0.11047	0.004425	0.00061	-0.083771	0.003204	0.007019	-0.028534	-0.02121	0.023041	-0.031586	0.037231	-0.046692	-0.006256	-0.005341	-0.034027	-0.29404	0.049591	-0.02182	0.15289	-0.059814	-0.2121	0.1886	0.037689	0.001831	0.006104	-0.004883	0.06134	-0.013275	0.005646	-0.007629
11.59	-0.015411	0.02182	0.076904	0.000763	-0.056458	-0.096283	0.001831	0.003967	0.018311	0.02182	0.024567	0.006866	-0.009918	-0.035858	-0.005493	-0.012054	-0.042877	-0.34409	0.019684	-0.04776	0.097961	-0.031281	-0.16464	0.18417	0.054626	0.003052	-0.008545	-0.00412	0.025024	-0.011139	0.011292	-0.002747
11.591	-0.007782	0.017395	0.12894	-0.003052	-0.11154	0.001831	0.017853	0.004578	-0.003967	-0.036316	0.022583	0.018768	-0.010071	-0.24124	-0.005188	-0.012207	-0.04364	-0.43823	0.007477	-0.053253	0.066071	-0.053864	-0.17288	-0.018158	0.051422	-0.005035	0.0737	-0.003204	-0.041962	0.00473	0.013123	-0.010223
11.592	-0.002899	0.051422	0.12497	0.009766	-0.1207	0.089264	0.036316	-0.002441	-0.003815	-0.081329	0.007629	0.012817	0.002136	-0.28961	0.007477	-0.016785	-0.034485	-0.52261	-0.022736	-0.062714	-0.1059	-0.022736	-0.28214	-0.12863	0.37445	-0.000916	-0.032654	-0.011749	-0.051727	0.091858	0.005188	-0.014954
11.593	-0.000153	0.045471	0.10742	0.000305	0.009613	0.10025	0.021973	-0.006561	0.002899	0.054474	0.0177	0.00824	0.027008	-0.11063	0.003204	-0.011749	0	-0.50079	0.017395	-0.16144	0.03952	-0.090485	-0.074921	-0.006104	0.51498	-0.00351	-0.090332	-0.004425	0.08728	0.083923	0.003662	-0.015869
11.594	-0.004425	0.031128	0.092163	0.007172	0.061646	0.090485	0.040131	0.007477	0.017853	0.18021	0.020294	-0.007324	0.019836	0.036011	0.00351	-0.029144	0.035095	-0.40832	-0.11276	-0.063019	0.085754	-0.10407	0.16159	0.14374	0.43366	0.002747	-0.2594	-0.000305	0.14893	0.13031	0.01709	-0.010376
11.595	-0.009155	0.061951	0.055695	0.013123	0.020599	0.20111	0.019836	0.00412	0.010834	0.14633	0.021667	-0.060272	-0.00824	0.036011	0.002594	-0.028687	0.057068	-0.31952	-0.15289	0.023499	-0.006104	-0.059204	0.21027	0.10574	0.38376	0.000305	-0.77911	-0.002747	0.12985	0.13458	0.013123	-0.005798
11.596	-0.019836	0.043945	0.079803	0.016022	0.045776	0.40619	0.041809	-0.000153	0.018158	0.16052	0.022278	-0.022583	-0.042725	0.10468	-0.000916	-0.031281	0.057831	-0.17746	0.017242	0.000916	-0.11566	0.006561	0.22568	0.016479	0.37216	-0.001984	-0.44327	-0.003204	-0.011139	0.065918	0.015259	-0.004578
11.597	-0.001678	-0.000458	0.11612	0.019684	0.013428	0.1709	0.045624	0.000305	0.02243	0.18036	0.024414	-0.019989	0.04303	0.13916	-0.008698	-0.017242	0.056915	-0.018463	0.16266	0.074158	-0.30563	0.093384	0.17273	-0.045624	0.39002	-0.003052	-0.080719	-0.002289	-0.065613	0.077209	0.014648	-0.007782
11.598	0.008392	0.025635	0.13214	0.024414	-0.05188	-0.18158	0.04303	0.005341	0.017548	-0.095825	0.027618	0.001984	0.007935	0.14267	0.001373	-0.011444	0.063324	0.074463	-0.029449	0.15442	-0.11078	0.093842	0.049591	-0.099487	0.42572	0	-0.13565	-0.00061	-0.078278	0.059052	0.013123	-0.009918
11.599	0.002136	0.058899	0.13748	0.019226	-0.040436	-0.14145	0.037689	0.001221	0.02594	-0.24719	0.017853	-0.004425	-0.039825	0.12741	0.002747	-0.007935	0.046844	0.14297	-0.16007	0.12634	0.31616	0.055695	-0.21759	-0.048065	0.28793	-0.002441	-0.3714	-0.000305	-0.065002	0.005188	0.011139	-0.006104
11.6	-0.001678	0.066071	0.12054	0.01236	-0.06134	-0.081177	0.046082	0.002747	0.026855	0.029602	0.02243	-0.010529	0.028687	0.11108	0.018158	-0.01236	0.018311	0.10986	-0.23025	0.026093	0.33371	0.027924	-0.18814	0.10071	-0.059357	-0.007477	-0.28229	-0.001831	0.014801	-0.004578	0.008698	-0.003052
11.601	-0.003052	0.092621	0.12802	0.017395	-0.020142	-0.49377	0.015259	-0.001678	0.043488	0.27863	0.02182	-0.012817	0.048218	0.077362	0.009003	-0.001373	0.02594	0.046234	-0.26688	-0.012817	0.13855	-0.03479	-0.082092	0.05127	-0.24841	-0.007019	-0.088654	-0.003815	0.012665	0.008545	0.010376	-0.010071
11.602	-0.013123	0.079803	0.13931	0.011597	0.057068	-0.26428	0.010986	-0.001831	0.039978	0.43762	0.016479	-0.005951	-0.024414	0.055695	0.024109	-0.006561	0.024719	0.014191	-0.19257	-0.098724	-0.092926	-0.041199	0.029755	-0.085754	-0.48813	-0.006409	0.027008	-0.003357	0.00473	0.014343	0.01297	-0.015411
11.603	-0.025635	0.063782	0.13306	0.011749	0.11597	0.10773	0.04837	0.00412	0.011597	0.79117	0.021667	-0.014496	-0.075378	-0.020294	0.035553	-0.014038	0.040436	-0.014648	-0.004578	-0.019226	-0.025635	-0.10468	0.23148	0.18265	-0.5098	-0.003815	0.11581	0.000153	-0.043335	0.023346	0.015411	-0.011139
11.604	-0.00946	0.071259	0.15182	0.003967	0.032196	0.29938	0.06424	-0.008392	0.010071	0.66315	0.017242	-0.01236	-0.081177	-0.07019	0.031586	0.003815	0.030823	-0.091705	-0.021057	0.10468	0.030212	-0.159	0.36896	0.68695	-0.34729	-0.00061	0.11887	0.002747	-0.0914	0.012054	0.012817	-0.019531
